<svg id="logo.svg" xmlns="http://www.w3.org/2000/svg" width="279.969" height="49" viewBox="0 0 279.969 49">
  <defs>
    <style>
      .cls-1 {
        fill: #1b1d20;
        fill-rule: evenodd;
      }
    </style>
  </defs>
  <path id="logo" class="cls-1" d="M72.8,0.666H65.758a0.635,0.635,0,0,0-.633.633V28.288a1.58,1.58,0,0,1-.066.633,2.01,2.01,0,0,1-.325-0.578L52.586,1.243A1.064,1.064,0,0,0,51.695.666H43a0.634,0.634,0,0,0-.633.633V47.7A0.634,0.634,0,0,0,43,48.33h7.045a0.635,0.635,0,0,0,.633-0.633V18.2a1.582,1.582,0,0,1,.066-0.633,2.017,2.017,0,0,1,.327.578l13.4,29.61a1.068,1.068,0,0,0,.893.577H72.8a0.634,0.634,0,0,0,.633-0.633V46.753a0.637,0.637,0,0,0-.007-0.091,0.027,0.027,0,0,0,.007-0.019V1.3A0.634,0.634,0,0,0,72.8.666ZM176.439,48.332a0.473,0.473,0,0,1-.48-0.615l11.5-46.436a0.852,0.852,0,0,1,.785-0.614h10.409a0.846,0.846,0,0,1,.782.615l11.181,46.435a0.476,0.476,0,0,1-.484.615h-7.442a0.835,0.835,0,0,1-.775-0.617l-2.024-8.8a0.836,0.836,0,0,0-.775-0.617H187.785a0.861,0.861,0,0,0-.79.613l-2.258,8.809a0.861,0.861,0,0,1-.79.613h-7.508Zm12.506-18.707a0.481,0.481,0,0,0,.489.617h7.771a0.483,0.483,0,0,0,.492-0.617l-4.136-18.043a1.774,1.774,0,0,0-.208-0.617,1.777,1.777,0,0,0-.21.617ZM30.434,0.666H22.6a0.626,0.626,0,0,0-.6.456,0.616,0.616,0,0,0-.036.178V33.445c0,4.337-2.88,6.438-6.432,6.438S9.1,37.674,9.1,33.445V1.3a0.619,0.619,0,0,0-.08-0.291A0.629,0.629,0,0,0,8.469.666H0.632A0.634,0.634,0,0,0,0,1.3V33.445A14.735,14.735,0,0,0,9.1,47.584a15.4,15.4,0,0,0,12.863,0,14.737,14.737,0,0,0,9.1-14.139V1.3A0.635,0.635,0,0,0,30.434.666ZM279.327,40.277H264.1a0.634,0.634,0,0,1-.632-0.633V28.367a0.635,0.635,0,0,1,.632-0.634h10.807a0.634,0.634,0,0,0,.632-0.633V20.312a0.634,0.634,0,0,0-.632-0.633H264.1a0.634,0.634,0,0,1-.632-0.633V9.354A0.634,0.634,0,0,1,264.1,8.72h14.566a0.634,0.634,0,0,0,.632-0.633V1.3a0.634,0.634,0,0,0-.632-0.633H255a0.634,0.634,0,0,0-.632.633V47.7a0.634,0.634,0,0,0,.632.633h24.329a0.634,0.634,0,0,0,.632-0.633V40.91A0.634,0.634,0,0,0,279.327,40.277ZM93.206,0.666H85.368a0.634,0.634,0,0,0-.633.633V47.7a0.635,0.635,0,0,0,.633.633h7.838a0.635,0.635,0,0,0,.633-0.633V1.3A0.635,0.635,0,0,0,93.206.666Zm39.131,0H103.259a0.635,0.635,0,0,0-.633.633V8.087a0.635,0.635,0,0,0,.633.633h9.355a0.634,0.634,0,0,1,.632.633V47.7a0.635,0.635,0,0,0,.633.633h7.837a0.635,0.635,0,0,0,.633-0.633V9.353a0.635,0.635,0,0,1,.633-0.633h9.355a0.634,0.634,0,0,0,.632-0.633V1.3A0.634,0.634,0,0,0,132.337.666Zm31.525,22.446,0.01,0a0.317,0.317,0,0,1,0-.523l0,0a11.135,11.135,0,0,0,5.461-9.64c0-8.186-5.607-12.279-15.37-12.279H141.793a0.635,0.635,0,0,0-.633.633V47.7a0.635,0.635,0,0,0,.633.633h12.692c9.631,0,15.963-4.292,15.963-13.732C170.448,28.824,168.569,26.166,163.862,23.112Zm-13.6-14.287a0.635,0.635,0,0,1,.633-0.633h2.993c4.288,0,6.333,2.244,6.333,5.744,0,3.234-2.7,5.611-6.794,5.611H150.9a0.635,0.635,0,0,1-.633-0.634V8.825Zm0,31.267V27.706a0.635,0.635,0,0,1,.633-0.633h2.532c4.749,0,7.915,2.244,7.915,6.8,0,4.159-2.506,6.932-7.256,6.932H150.9a0.635,0.635,0,0,1-.633-0.634m75.421-27.425c0-3.234,1.781-5.215,5.013-5.215,3.1,0,5.062,1.842,6.566,6.135,0,0,0,.009.005,0.014a0.3,0.3,0,0,0,.389.169l0.027-.008,7.6-2.209h0a0.314,0.314,0,0,0,.192-0.281s0,0,0-.008c-0.01-.045-0.02-0.088-0.029-0.133,0-.007-0.012-0.011-0.016-0.018C243.765,4.653,238.859.006,230.9,0.006c-9.432,0-14.312,5.15-14.312,13.336,0,13.336,20.315,13.468,20.315,22.446a5.35,5.35,0,0,1-5.607,5.678c-2.643,0-5.848-1.966-6.977-7.419,0,0,0,0,0,0a0.3,0.3,0,0,0-.03-0.13,0.295,0.295,0,0,0-.38-0.168l-0.031.006-8.217,1.753h0a0.313,0.313,0,0,0-.127.028,0.317,0.317,0,0,0-.19.289,0.32,0.32,0,0,0,.021.1,0.233,0.233,0,0,1,.007.025c2.494,9.11,8.172,13.042,15.462,13.042,9.565,0,15.171-5.414,15.171-13.6C246,20.471,225.686,19.943,225.686,12.747Z"/>
</svg>
